<?xml version="1.0" standalone="no"?>
<!DOCTYPE svg PUBLIC "-//W3C//DTD SVG 20010904//EN"
 "http://www.w3.org/TR/2001/REC-SVG-20010904/DTD/svg10.dtd">
<svg version="1.0" xmlns="http://www.w3.org/2000/svg"
 width="253.000000pt" height="253.000000pt" viewBox="0 0 253.000000 253.000000"
 preserveAspectRatio="xMidYMid meet">

<g transform="translate(0.000000,253.000000) scale(0.100000,-0.100000)"
fill="#000000" stroke="none">
<path d="M1260 2393 c-8 -3 -18 -11 -22 -18 -5 -8 -35 -13 -84 -13 -42 -1 -81
-5 -88 -10 -6 -6 -30 -13 -52 -17 -33 -5 -52 -18 -93 -61 -28 -30 -51 -60 -51
-68 0 -9 -7 -12 -18 -9 -11 2 -32 -7 -50 -22 -25 -21 -32 -35 -32 -61 0 -22
-6 -37 -15 -40 -8 -4 -15 -12 -15 -20 0 -8 -4 -14 -10 -14 -5 0 -9 -32 -9 -73
0 -40 -5 -93 -11 -118 -7 -29 -10 -109 -8 -215 3 -159 4 -171 28 -211 13 -23
22 -44 19 -48 -4 -3 -23 4 -43 16 -20 12 -39 19 -41 17 -3 -2 13 -14 34 -26
50 -28 58 -52 77 -222 11 -89 21 -138 30 -145 18 -13 71 -154 84 -224 17 -93
15 -98 -37 -123 -26 -12 -86 -59 -134 -105 -48 -45 -112 -98 -143 -118 -47
-30 -369 -169 -528 -229 l-48 -18 0 -99 0 -99 390 0 390 0 -5 38 c-13 105 -15
333 -4 397 11 58 17 70 43 86 17 11 34 19 37 19 3 0 4 -21 2 -47 -4 -40 0 -55
21 -86 25 -37 25 -38 11 -94 -20 -78 -19 -107 10 -188 19 -55 29 -71 46 -73
34 -6 187 38 225 65 29 19 45 22 102 19 61 -3 71 -6 105 -38 53 -49 152 -98
198 -98 45 0 67 26 94 108 15 46 16 62 6 128 l-13 75 36 40 36 39 10 -26 c13
-32 37 -183 46 -287 l6 -77 369 0 369 0 0 48 0 48 -77 33 c-273 116 -545 247
-589 282 -86 70 -123 111 -137 153 l-14 41 -7 -40 c-14 -77 -17 -85 -45 -118
-37 -42 -113 -83 -171 -92 -53 -9 -88 -25 -113 -53 -16 -18 -27 -19 -104 -15
-85 5 -86 5 -164 61 -43 32 -99 70 -124 86 -32 19 -53 43 -71 78 -22 44 -24
53 -13 86 l12 36 24 -30 25 -29 -21 41 c-33 69 -18 103 23 50 41 -55 85 -81
136 -82 243 -5 250 -4 250 8 0 5 3 7 8 5 4 -3 34 0 67 5 33 5 68 9 78 9 9 0
17 5 17 10 0 5 6 9 13 8 31 -6 73 30 122 106 56 87 69 121 80 200 7 52 33 125
44 125 6 0 32 192 46 335 3 30 12 47 35 67 l32 26 -5 134 c-7 180 -17 227 -72
341 -38 79 -55 103 -91 129 -30 22 -44 39 -44 55 0 14 -6 23 -16 23 -8 0 -12
-4 -9 -10 3 -5 1 -10 -4 -10 -15 0 -14 12 4 37 13 18 13 22 0 33 -8 7 -15 10
-15 6 0 -4 -13 0 -30 9 -16 9 -30 19 -30 23 0 5 -16 16 -35 25 -22 10 -35 24
-35 35 0 21 -64 55 -96 51 -10 -1 -36 5 -56 15 -38 16 -70 19 -98 9z m272
-286 c108 -52 166 -152 182 -315 3 -29 12 -68 21 -85 31 -62 67 -312 51 -354
-4 -10 -10 -54 -12 -98 -5 -80 -32 -204 -60 -275 -9 -21 -31 -52 -50 -70 -19
-17 -32 -35 -29 -40 3 -5 1 -11 -5 -15 -5 -3 -10 -1 -10 4 0 6 -4 11 -9 11 -5
0 -7 -10 -3 -22 5 -21 4 -22 -14 -8 -10 8 -20 15 -22 16 -2 1 4 16 12 33 20
38 20 47 1 31 -8 -7 -20 -29 -26 -50 -7 -24 -16 -37 -24 -33 -7 2 -16 0 -19
-6 -4 -6 -13 -8 -20 -5 -9 3 -13 -1 -13 -13 1 -9 -3 -18 -10 -18 -6 0 -15 -3
-19 -8 -13 -13 -23 -8 -27 16 -4 19 -4 18 -6 -5 0 -18 -7 -28 -16 -28 -8 0
-15 -4 -15 -9 0 -13 -52 -20 -72 -10 -13 7 -18 4 -23 -12 l-7 -20 -18 21 c-16
19 -19 19 -22 4 -4 -21 -45 -26 -52 -7 -3 7 -12 13 -21 13 -8 0 -15 5 -15 11
0 5 -5 7 -10 4 -6 -3 -22 14 -38 39 -15 25 -31 46 -35 46 -5 0 -6 -4 -2 -9 3
-5 1 -12 -4 -15 -13 -8 -81 25 -81 39 0 6 -11 22 -25 35 -14 13 -23 25 -21 28
6 5 -43 143 -57 160 -5 7 -12 11 -14 8 -7 -6 18 -90 28 -97 5 -3 12 -30 16
-59 l6 -53 -21 21 c-48 48 -105 230 -96 309 1 13 -1 23 -5 23 -8 0 -13 79 -14
230 -1 78 4 127 21 192 12 47 19 93 16 101 -5 14 14 125 36 207 24 90 181 170
342 173 47 1 89 5 92 8 12 12 188 -20 238 -44z"/>
<path d="M1435 1731 c-104 -15 -92 -52 15 -49 87 2 164 -16 198 -47 35 -33 46
-32 28 3 -19 37 -52 66 -70 59 -7 -3 -31 3 -52 13 -52 24 -71 28 -119 21z"/>
<path d="M898 1680 c-41 -26 -48 -28 -49 -13 0 16 -27 -69 -29 -89 0 -15 17
-8 41 15 55 55 77 62 181 62 67 0 98 3 98 11 0 25 -33 37 -113 41 -78 4 -85 2
-129 -27z"/>
<path d="M1400 1607 c-14 -7 -25 -19 -25 -27 0 -8 -4 -21 -8 -27 -12 -18 3
-16 25 4 10 9 21 13 25 9 4 -4 2 -11 -6 -15 -7 -5 11 -6 41 -3 29 3 56 10 60
16 5 8 11 7 20 -2 9 -9 9 -12 -2 -13 -21 -2 39 -16 72 -18 24 -1 26 2 19 21
-4 12 -19 29 -32 37 l-24 15 20 -23 20 -24 -31 16 c-18 9 -49 21 -70 26 -22 5
-48 12 -59 15 -11 4 -31 0 -45 -7z"/>
<path d="M942 1595 c-18 -8 -35 -22 -38 -32 -3 -10 -10 -26 -15 -35 -5 -10 -9
-20 -9 -23 0 -9 49 -5 54 4 3 4 21 11 40 14 19 3 51 13 71 22 24 12 39 14 48
8 6 -6 24 -13 40 -17 39 -9 36 19 -5 44 -36 22 -62 27 -35 8 14 -11 3 -13 -68
-13 -82 0 -84 1 -62 17 27 21 22 22 -21 3z"/>
<path d="M1314 1301 c-33 -20 -51 -41 -36 -41 5 0 17 9 27 20 10 11 26 20 37
20 10 0 18 5 18 10 0 15 -11 12 -46 -9z"/>
<path d="M1110 1300 c0 -5 9 -14 20 -20 11 -6 20 -20 20 -30 0 -13 7 -20 19
-20 11 0 23 -5 26 -11 4 -6 14 -8 22 -5 11 4 13 2 9 -9 -3 -8 -1 -15 4 -15 20
0 18 18 -6 43 -24 26 -35 52 -12 29 7 -7 18 -12 26 -12 7 0 -1 12 -18 26 -31
26 -110 43 -110 24z m45 -10 c3 -6 -1 -7 -9 -4 -18 7 -21 14 -7 14 6 0 13 -4
16 -10z"/>
<path d="M1307 1254 c-3 -3 -3 -12 -1 -19 4 -10 -1 -12 -18 -9 -22 5 -22 5 -4
-10 25 -20 35 -20 42 -1 4 8 10 12 15 9 5 -3 9 1 9 9 0 8 -7 18 -16 21 -19 7
-19 7 -27 0z"/>
<path d="M983 1168 c-15 -7 -23 -20 -23 -37 l0 -25 16 22 c8 12 22 22 30 22 8
0 14 7 14 15 0 17 -6 18 -37 3z"/>
<path d="M1060 1170 c-8 -5 -12 -11 -10 -14 3 -2 14 2 24 10 22 15 10 19 -14
4z"/>
<path d="M1551 1124 c0 -11 3 -14 6 -6 3 7 2 16 -1 19 -3 4 -6 -2 -5 -13z"/>
<path d="M1011 1116 c-9 -11 -4 -18 29 -35 27 -14 40 -17 40 -8 0 14 34 39 65
48 11 3 -12 7 -51 7 -50 1 -75 -2 -83 -12z"/>
<path d="M1440 1117 c14 -6 28 -15 31 -19 6 -9 59 13 59 25 0 4 -26 7 -57 6
-52 0 -55 -2 -33 -12z"/>
<path d="M1640 1035 c0 -8 4 -15 10 -15 5 0 7 7 4 15 -4 8 -8 15 -10 15 -2 0
-4 -7 -4 -15z"/>
<path d="M1600 890 c0 -5 5 -10 11 -10 5 0 7 5 4 10 -3 6 -8 10 -11 10 -2 0
-4 -4 -4 -10z"/>
</g>
</svg>
